<mxfile modified="2023-05-07T18:02:20.433Z" host="app.diagrams.net" agent="5.0 (X11; Linux x86_64) AppleWebKit/537.36 (KHTML, like Gecko) Chrome/112.0.0.0 Safari/537.36" etag="GWtYv_BTo80wR8YzXMKs" version="21.0.2" type="github">
  <diagram id="Ht1M8jgEwFfnCIfOTk4-" name="Page-1">
    <mxGraphModel dx="1434" dy="1836" grid="1" gridSize="10" guides="1" tooltips="1" connect="1" arrows="1" fold="1" page="1" pageScale="1" pageWidth="850" pageHeight="1100" math="0" shadow="0">
      <root>
        <mxCell id="0" />
        <mxCell id="1" parent="0" />
        <mxCell id="CKIb83CQnGtOCc5Tpajb-8" style="edgeStyle=orthogonalEdgeStyle;rounded=0;orthogonalLoop=1;jettySize=auto;html=1;" parent="1" source="CKIb83CQnGtOCc5Tpajb-4" target="CKIb83CQnGtOCc5Tpajb-2" edge="1">
          <mxGeometry relative="1" as="geometry" />
        </mxCell>
        <mxCell id="CKIb83CQnGtOCc5Tpajb-4" value="CDN (CloudFront)" style="sketch=0;points=[[0,0,0],[0.25,0,0],[0.5,0,0],[0.75,0,0],[1,0,0],[0,1,0],[0.25,1,0],[0.5,1,0],[0.75,1,0],[1,1,0],[0,0.25,0],[0,0.5,0],[0,0.75,0],[1,0.25,0],[1,0.5,0],[1,0.75,0]];outlineConnect=0;fontColor=#232F3E;gradientColor=#945DF2;gradientDirection=north;fillColor=#5A30B5;strokeColor=#ffffff;dashed=0;verticalLabelPosition=bottom;verticalAlign=top;align=center;html=1;fontSize=12;fontStyle=0;aspect=fixed;shape=mxgraph.aws4.resourceIcon;resIcon=mxgraph.aws4.cloudfront;" parent="1" vertex="1">
          <mxGeometry x="22" y="40" width="78" height="78" as="geometry" />
        </mxCell>
        <mxCell id="CKIb83CQnGtOCc5Tpajb-17" style="edgeStyle=orthogonalEdgeStyle;rounded=0;orthogonalLoop=1;jettySize=auto;html=1;entryX=0;entryY=0.5;entryDx=0;entryDy=0;entryPerimeter=0;" parent="1" source="CKIb83CQnGtOCc5Tpajb-6" target="CKIb83CQnGtOCc5Tpajb-15" edge="1">
          <mxGeometry relative="1" as="geometry" />
        </mxCell>
        <mxCell id="CKIb83CQnGtOCc5Tpajb-79" style="edgeStyle=orthogonalEdgeStyle;rounded=0;orthogonalLoop=1;jettySize=auto;html=1;exitX=0.5;exitY=1;exitDx=0;exitDy=0;exitPerimeter=0;entryX=0;entryY=0.5;entryDx=0;entryDy=0;entryPerimeter=0;" parent="1" source="CKIb83CQnGtOCc5Tpajb-6" target="CKIb83CQnGtOCc5Tpajb-5" edge="1">
          <mxGeometry relative="1" as="geometry" />
        </mxCell>
        <mxCell id="CKIb83CQnGtOCc5Tpajb-6" value="WAF" style="sketch=0;points=[[0,0,0],[0.25,0,0],[0.5,0,0],[0.75,0,0],[1,0,0],[0,1,0],[0.25,1,0],[0.5,1,0],[0.75,1,0],[1,1,0],[0,0.25,0],[0,0.5,0],[0,0.75,0],[1,0.25,0],[1,0.5,0],[1,0.75,0]];outlineConnect=0;fontColor=#232F3E;gradientColor=#F54749;gradientDirection=north;fillColor=#C7131F;strokeColor=#ffffff;dashed=0;verticalLabelPosition=bottom;verticalAlign=top;align=center;html=1;fontSize=12;fontStyle=0;aspect=fixed;shape=mxgraph.aws4.resourceIcon;resIcon=mxgraph.aws4.waf;" parent="1" vertex="1">
          <mxGeometry x="178" y="-90" width="78" height="78" as="geometry" />
        </mxCell>
        <mxCell id="CKIb83CQnGtOCc5Tpajb-20" style="edgeStyle=orthogonalEdgeStyle;rounded=0;orthogonalLoop=1;jettySize=auto;html=1;" parent="1" source="bDSwQKVHY4vqEBovMKtv-10" target="CKIb83CQnGtOCc5Tpajb-18" edge="1">
          <mxGeometry relative="1" as="geometry">
            <mxPoint x="61" y="-90" as="sourcePoint" />
          </mxGeometry>
        </mxCell>
        <mxCell id="CKIb83CQnGtOCc5Tpajb-59" style="edgeStyle=orthogonalEdgeStyle;rounded=0;orthogonalLoop=1;jettySize=auto;html=1;entryX=0.5;entryY=0;entryDx=0;entryDy=0;entryPerimeter=0;" parent="1" source="bDSwQKVHY4vqEBovMKtv-10" target="CKIb83CQnGtOCc5Tpajb-4" edge="1">
          <mxGeometry relative="1" as="geometry">
            <mxPoint x="-120" y="10" as="sourcePoint" />
          </mxGeometry>
        </mxCell>
        <mxCell id="CKIb83CQnGtOCc5Tpajb-64" style="edgeStyle=orthogonalEdgeStyle;rounded=0;orthogonalLoop=1;jettySize=auto;html=1;entryX=0;entryY=0.5;entryDx=0;entryDy=0;entryPerimeter=0;" parent="1" source="bDSwQKVHY4vqEBovMKtv-10" target="CKIb83CQnGtOCc5Tpajb-6" edge="1">
          <mxGeometry relative="1" as="geometry">
            <mxPoint x="130" y="-50" as="sourcePoint" />
          </mxGeometry>
        </mxCell>
        <mxCell id="CKIb83CQnGtOCc5Tpajb-2" value="Object Storage (S3)&lt;br&gt;Static Assets" style="sketch=0;points=[[0,0,0],[0.25,0,0],[0.5,0,0],[0.75,0,0],[1,0,0],[0,1,0],[0.25,1,0],[0.5,1,0],[0.75,1,0],[1,1,0],[0,0.25,0],[0,0.5,0],[0,0.75,0],[1,0.25,0],[1,0.5,0],[1,0.75,0]];outlineConnect=0;fontColor=#232F3E;gradientColor=#60A337;gradientDirection=north;fillColor=#277116;strokeColor=#ffffff;dashed=0;verticalLabelPosition=bottom;verticalAlign=top;align=center;html=1;fontSize=12;fontStyle=0;aspect=fixed;shape=mxgraph.aws4.resourceIcon;resIcon=mxgraph.aws4.s3;" parent="1" vertex="1">
          <mxGeometry x="22" y="160" width="78" height="78" as="geometry" />
        </mxCell>
        <mxCell id="CKIb83CQnGtOCc5Tpajb-18" value="DNS (Route 53)" style="sketch=0;points=[[0,0,0],[0.25,0,0],[0.5,0,0],[0.75,0,0],[1,0,0],[0,1,0],[0.25,1,0],[0.5,1,0],[0.75,1,0],[1,1,0],[0,0.25,0],[0,0.5,0],[0,0.75,0],[1,0.25,0],[1,0.5,0],[1,0.75,0]];outlineConnect=0;fontColor=#232F3E;gradientColor=#945DF2;gradientDirection=north;fillColor=#5A30B5;strokeColor=#ffffff;dashed=0;verticalLabelPosition=bottom;verticalAlign=top;align=center;html=1;fontSize=12;fontStyle=0;aspect=fixed;shape=mxgraph.aws4.resourceIcon;resIcon=mxgraph.aws4.route_53;" parent="1" vertex="1">
          <mxGeometry x="22" y="-210" width="78" height="78" as="geometry" />
        </mxCell>
        <mxCell id="bDSwQKVHY4vqEBovMKtv-45" style="edgeStyle=orthogonalEdgeStyle;rounded=0;orthogonalLoop=1;jettySize=auto;html=1;entryX=0;entryY=0.5;entryDx=0;entryDy=0;entryPerimeter=0;exitX=0.5;exitY=1;exitDx=0;exitDy=0;exitPerimeter=0;" parent="1" source="CKIb83CQnGtOCc5Tpajb-5" target="bDSwQKVHY4vqEBovMKtv-34" edge="1">
          <mxGeometry relative="1" as="geometry" />
        </mxCell>
        <mxCell id="CKIb83CQnGtOCc5Tpajb-5" value="API Gateway" style="sketch=0;points=[[0,0,0],[0.25,0,0],[0.5,0,0],[0.75,0,0],[1,0,0],[0,1,0],[0.25,1,0],[0.5,1,0],[0.75,1,0],[1,1,0],[0,0.25,0],[0,0.5,0],[0,0.75,0],[1,0.25,0],[1,0.5,0],[1,0.75,0]];outlineConnect=0;fontColor=#232F3E;gradientColor=#945DF2;gradientDirection=north;fillColor=#5A30B5;strokeColor=#ffffff;dashed=0;verticalLabelPosition=bottom;verticalAlign=top;align=center;html=1;fontSize=12;fontStyle=0;aspect=fixed;shape=mxgraph.aws4.resourceIcon;resIcon=mxgraph.aws4.api_gateway;" parent="1" vertex="1">
          <mxGeometry x="270" y="100" width="78" height="78" as="geometry" />
        </mxCell>
        <mxCell id="bDSwQKVHY4vqEBovMKtv-22" style="edgeStyle=orthogonalEdgeStyle;rounded=0;orthogonalLoop=1;jettySize=auto;html=1;exitX=1;exitY=0.5;exitDx=0;exitDy=0;exitPerimeter=0;entryX=0.25;entryY=0;entryDx=0;entryDy=0;" parent="1" source="CKIb83CQnGtOCc5Tpajb-67" target="bDSwQKVHY4vqEBovMKtv-14" edge="1">
          <mxGeometry relative="1" as="geometry" />
        </mxCell>
        <object label="Relational DB&lt;br style=&quot;border-color: var(--border-color);&quot;&gt;(RDS/Aurora)&lt;br style=&quot;border-color: var(--border-color);&quot;&gt;e.g. PostgreSQL&lt;br&gt;for Inventory and Users" id="CKIb83CQnGtOCc5Tpajb-67">
          <mxCell style="sketch=0;points=[[0,0,0],[0.25,0,0],[0.5,0,0],[0.75,0,0],[1,0,0],[0,1,0],[0.25,1,0],[0.5,1,0],[0.75,1,0],[1,1,0],[0,0.25,0],[0,0.5,0],[0,0.75,0],[1,0.25,0],[1,0.5,0],[1,0.75,0]];outlineConnect=0;fontColor=#232F3E;gradientColor=#4D72F3;gradientDirection=north;fillColor=#3334B9;strokeColor=#ffffff;dashed=0;verticalLabelPosition=bottom;verticalAlign=top;align=center;html=1;fontSize=12;fontStyle=0;aspect=fixed;shape=mxgraph.aws4.resourceIcon;resIcon=mxgraph.aws4.aurora;" parent="1" vertex="1">
            <mxGeometry x="708" y="100" width="78" height="78" as="geometry" />
          </mxCell>
        </object>
        <mxCell id="CKIb83CQnGtOCc5Tpajb-77" style="edgeStyle=orthogonalEdgeStyle;rounded=0;orthogonalLoop=1;jettySize=auto;html=1;exitX=0.5;exitY=0;exitDx=0;exitDy=0;exitPerimeter=0;" parent="1" source="CKIb83CQnGtOCc5Tpajb-5" target="CKIb83CQnGtOCc5Tpajb-15" edge="1">
          <mxGeometry relative="1" as="geometry">
            <mxPoint x="358" y="100" as="sourcePoint" />
          </mxGeometry>
        </mxCell>
        <mxCell id="CKIb83CQnGtOCc5Tpajb-78" style="edgeStyle=orthogonalEdgeStyle;rounded=0;orthogonalLoop=1;jettySize=auto;html=1;exitX=0.5;exitY=1;exitDx=0;exitDy=0;exitPerimeter=0;entryX=0.5;entryY=0;entryDx=0;entryDy=0;entryPerimeter=0;" parent="1" source="CKIb83CQnGtOCc5Tpajb-11" target="CKIb83CQnGtOCc5Tpajb-38" edge="1">
          <mxGeometry relative="1" as="geometry" />
        </mxCell>
        <mxCell id="bDSwQKVHY4vqEBovMKtv-32" style="edgeStyle=orthogonalEdgeStyle;rounded=0;orthogonalLoop=1;jettySize=auto;html=1;entryX=0;entryY=0.5;entryDx=0;entryDy=0;entryPerimeter=0;" parent="1" source="bDSwQKVHY4vqEBovMKtv-1" target="bDSwQKVHY4vqEBovMKtv-25" edge="1">
          <mxGeometry relative="1" as="geometry" />
        </mxCell>
        <mxCell id="bDSwQKVHY4vqEBovMKtv-1" value="Data Warehouse&lt;br&gt;(Redshift)&lt;br&gt;e.g. User Metrics&lt;br&gt;and Recommendations" style="sketch=0;points=[[0,0,0],[0.25,0,0],[0.5,0,0],[0.75,0,0],[1,0,0],[0,1,0],[0.25,1,0],[0.5,1,0],[0.75,1,0],[1,1,0],[0,0.25,0],[0,0.5,0],[0,0.75,0],[1,0.25,0],[1,0.5,0],[1,0.75,0]];outlineConnect=0;fontColor=#232F3E;gradientColor=#4D72F3;gradientDirection=north;fillColor=#3334B9;strokeColor=#ffffff;dashed=0;verticalLabelPosition=bottom;verticalAlign=top;align=center;html=1;fontSize=12;fontStyle=0;aspect=fixed;shape=mxgraph.aws4.resourceIcon;resIcon=mxgraph.aws4.redshift;" parent="1" vertex="1">
          <mxGeometry x="858" y="100" width="78" height="78" as="geometry" />
        </mxCell>
        <mxCell id="bDSwQKVHY4vqEBovMKtv-2" value="" style="edgeStyle=orthogonalEdgeStyle;html=1;endArrow=block;elbow=vertical;startArrow=block;startFill=1;endFill=1;strokeColor=#545B64;rounded=0;exitX=0;exitY=0.75;exitDx=0;exitDy=0;exitPerimeter=0;entryX=1;entryY=0.5;entryDx=0;entryDy=0;entryPerimeter=0;" parent="1" source="CKIb83CQnGtOCc5Tpajb-67" target="CKIb83CQnGtOCc5Tpajb-32" edge="1">
          <mxGeometry width="100" relative="1" as="geometry">
            <mxPoint x="648" y="330" as="sourcePoint" />
            <mxPoint x="748" y="330" as="targetPoint" />
            <Array as="points">
              <mxPoint x="618" y="159" />
              <mxPoint x="618" y="452" />
            </Array>
          </mxGeometry>
        </mxCell>
        <mxCell id="bDSwQKVHY4vqEBovMKtv-3" value="" style="edgeStyle=orthogonalEdgeStyle;html=1;endArrow=block;elbow=vertical;startArrow=block;startFill=1;endFill=1;strokeColor=#545B64;rounded=0;exitX=1;exitY=0.75;exitDx=0;exitDy=0;exitPerimeter=0;entryX=0;entryY=0.25;entryDx=0;entryDy=0;entryPerimeter=0;" parent="1" source="CKIb83CQnGtOCc5Tpajb-11" target="CKIb83CQnGtOCc5Tpajb-67" edge="1">
          <mxGeometry width="100" relative="1" as="geometry">
            <mxPoint x="858" y="20" as="sourcePoint" />
            <mxPoint x="958" y="20" as="targetPoint" />
            <Array as="points">
              <mxPoint x="618" y="-31" />
              <mxPoint x="618" y="120" />
            </Array>
          </mxGeometry>
        </mxCell>
        <mxCell id="bDSwQKVHY4vqEBovMKtv-7" value="" style="edgeStyle=orthogonalEdgeStyle;html=1;endArrow=block;elbow=vertical;startArrow=block;startFill=1;endFill=1;strokeColor=#545B64;rounded=0;entryX=0;entryY=0.25;entryDx=0;entryDy=0;exitX=1;exitY=0.25;exitDx=0;exitDy=0;exitPerimeter=0;" parent="1" source="CKIb83CQnGtOCc5Tpajb-11" target="bDSwQKVHY4vqEBovMKtv-14" edge="1">
          <mxGeometry width="100" relative="1" as="geometry">
            <mxPoint x="138" y="198.5" as="sourcePoint" />
            <mxPoint x="238" y="198.5" as="targetPoint" />
            <Array as="points">
              <mxPoint x="668" y="-70" />
              <mxPoint x="668" y="297" />
            </Array>
          </mxGeometry>
        </mxCell>
        <mxCell id="bDSwQKVHY4vqEBovMKtv-10" value="" style="sketch=0;outlineConnect=0;fontColor=#232F3E;gradientColor=none;fillColor=#232F3D;strokeColor=none;dashed=0;verticalLabelPosition=bottom;verticalAlign=top;align=center;html=1;fontSize=12;fontStyle=0;aspect=fixed;pointerEvents=1;shape=mxgraph.aws4.users;" parent="1" vertex="1">
          <mxGeometry x="22" y="-90" width="78" height="78" as="geometry" />
        </mxCell>
        <mxCell id="bDSwQKVHY4vqEBovMKtv-16" value="" style="group" parent="1" vertex="1" connectable="0">
          <mxGeometry x="716" y="260" width="210" height="146" as="geometry" />
        </mxCell>
        <mxCell id="bDSwQKVHY4vqEBovMKtv-12" value="Serverless&lt;br&gt;(Lambda)" style="sketch=0;points=[[0,0,0],[0.25,0,0],[0.5,0,0],[0.75,0,0],[1,0,0],[0,1,0],[0.25,1,0],[0.5,1,0],[0.75,1,0],[1,1,0],[0,0.25,0],[0,0.5,0],[0,0.75,0],[1,0.25,0],[1,0.5,0],[1,0.75,0]];outlineConnect=0;fontColor=#232F3E;gradientColor=#F78E04;gradientDirection=north;fillColor=#D05C17;strokeColor=#ffffff;dashed=0;verticalLabelPosition=bottom;verticalAlign=top;align=center;html=1;fontSize=12;fontStyle=0;aspect=fixed;shape=mxgraph.aws4.resourceIcon;resIcon=mxgraph.aws4.lambda;movable=1;resizable=1;rotatable=1;deletable=1;editable=1;locked=0;connectable=1;" parent="bDSwQKVHY4vqEBovMKtv-16" vertex="1">
          <mxGeometry x="20" y="26" width="78" height="78" as="geometry" />
        </mxCell>
        <mxCell id="bDSwQKVHY4vqEBovMKtv-13" value="Serverless Function&lt;br&gt;(Step Function)" style="sketch=0;points=[[0,0,0],[0.25,0,0],[0.5,0,0],[0.75,0,0],[1,0,0],[0,1,0],[0.25,1,0],[0.5,1,0],[0.75,1,0],[1,1,0],[0,0.25,0],[0,0.5,0],[0,0.75,0],[1,0.25,0],[1,0.5,0],[1,0.75,0]];outlineConnect=0;fontColor=#232F3E;gradientColor=#FF4F8B;gradientDirection=north;fillColor=#BC1356;strokeColor=#ffffff;dashed=0;verticalLabelPosition=bottom;verticalAlign=top;align=center;html=1;fontSize=12;fontStyle=0;aspect=fixed;shape=mxgraph.aws4.resourceIcon;resIcon=mxgraph.aws4.step_functions;movable=1;resizable=1;rotatable=1;deletable=1;editable=1;locked=0;connectable=1;" parent="bDSwQKVHY4vqEBovMKtv-16" vertex="1">
          <mxGeometry x="110" y="26" width="78" height="78" as="geometry" />
        </mxCell>
        <mxCell id="bDSwQKVHY4vqEBovMKtv-14" value="Compute ETL" style="fillColor=none;strokeColor=#5A6C86;dashed=1;verticalAlign=top;fontStyle=0;fontColor=#5A6C86;whiteSpace=wrap;html=1;movable=1;resizable=1;rotatable=1;deletable=1;editable=1;locked=0;connectable=1;" parent="bDSwQKVHY4vqEBovMKtv-16" vertex="1">
          <mxGeometry width="210" height="146" as="geometry" />
        </mxCell>
        <mxCell id="bDSwQKVHY4vqEBovMKtv-19" value="" style="edgeStyle=orthogonalEdgeStyle;html=1;endArrow=block;elbow=vertical;startArrow=block;startFill=1;endFill=1;strokeColor=#545B64;rounded=0;exitX=0.75;exitY=0;exitDx=0;exitDy=0;entryX=0;entryY=0.5;entryDx=0;entryDy=0;entryPerimeter=0;" parent="1" source="bDSwQKVHY4vqEBovMKtv-14" target="bDSwQKVHY4vqEBovMKtv-1" edge="1">
          <mxGeometry width="100" relative="1" as="geometry">
            <mxPoint x="218" y="208.5" as="sourcePoint" />
            <mxPoint x="318" y="208.5" as="targetPoint" />
            <Array as="points">
              <mxPoint x="874" y="219" />
              <mxPoint x="838" y="219" />
              <mxPoint x="838" y="139" />
            </Array>
          </mxGeometry>
        </mxCell>
        <mxCell id="bDSwQKVHY4vqEBovMKtv-23" style="edgeStyle=orthogonalEdgeStyle;rounded=0;orthogonalLoop=1;jettySize=auto;html=1;entryX=0;entryY=0.75;entryDx=0;entryDy=0;" parent="1" source="CKIb83CQnGtOCc5Tpajb-38" target="bDSwQKVHY4vqEBovMKtv-14" edge="1">
          <mxGeometry relative="1" as="geometry" />
        </mxCell>
        <mxCell id="bDSwQKVHY4vqEBovMKtv-25" value="Business intelligence (BI)&lt;br&gt;QuickSight" style="sketch=0;points=[[0,0,0],[0.25,0,0],[0.5,0,0],[0.75,0,0],[1,0,0],[0,1,0],[0.25,1,0],[0.5,1,0],[0.75,1,0],[1,1,0],[0,0.25,0],[0,0.5,0],[0,0.75,0],[1,0.25,0],[1,0.5,0],[1,0.75,0]];outlineConnect=0;fontColor=#232F3E;gradientColor=#945DF2;gradientDirection=north;fillColor=#5A30B5;strokeColor=#ffffff;dashed=0;verticalLabelPosition=bottom;verticalAlign=top;align=center;html=1;fontSize=12;fontStyle=0;aspect=fixed;shape=mxgraph.aws4.resourceIcon;resIcon=mxgraph.aws4.quicksight;" parent="1" vertex="1">
          <mxGeometry x="1018" y="100" width="78" height="78" as="geometry" />
        </mxCell>
        <mxCell id="bDSwQKVHY4vqEBovMKtv-26" value="Data Network (VPC)" style="points=[[0,0],[0.25,0],[0.5,0],[0.75,0],[1,0],[1,0.25],[1,0.5],[1,0.75],[1,1],[0.75,1],[0.5,1],[0.25,1],[0,1],[0,0.75],[0,0.5],[0,0.25]];outlineConnect=0;gradientColor=none;html=1;whiteSpace=wrap;fontSize=12;fontStyle=0;container=1;pointerEvents=0;collapsible=0;recursiveResize=0;shape=mxgraph.aws4.group;grIcon=mxgraph.aws4.group_vpc;strokeColor=#248814;fillColor=none;verticalAlign=top;align=left;spacingLeft=30;fontColor=#AAB7B8;dashed=0;" parent="1" vertex="1">
          <mxGeometry x="678" y="70" width="290" height="350" as="geometry" />
        </mxCell>
        <mxCell id="bDSwQKVHY4vqEBovMKtv-29" value="" style="group" parent="1" vertex="1" connectable="0">
          <mxGeometry x="348" y="-260" width="290" height="290" as="geometry" />
        </mxCell>
        <mxCell id="CKIb83CQnGtOCc5Tpajb-12" value="Key Value Store&lt;br&gt;(DynamoDB)&lt;br&gt;Session State" style="sketch=0;points=[[0,0,0],[0.25,0,0],[0.5,0,0],[0.75,0,0],[1,0,0],[0,1,0],[0.25,1,0],[0.5,1,0],[0.75,1,0],[1,1,0],[0,0.25,0],[0,0.5,0],[0,0.75,0],[1,0.25,0],[1,0.5,0],[1,0.75,0]];outlineConnect=0;fontColor=#232F3E;gradientColor=#4D72F3;gradientDirection=north;fillColor=#3334B9;strokeColor=#ffffff;dashed=0;verticalLabelPosition=bottom;verticalAlign=top;align=center;html=1;fontSize=12;fontStyle=0;aspect=fixed;shape=mxgraph.aws4.resourceIcon;resIcon=mxgraph.aws4.dynamodb;" parent="bDSwQKVHY4vqEBovMKtv-29" vertex="1">
          <mxGeometry x="81" y="21" width="78" height="78" as="geometry" />
        </mxCell>
        <mxCell id="bDSwQKVHY4vqEBovMKtv-39" value="" style="edgeStyle=orthogonalEdgeStyle;rounded=0;orthogonalLoop=1;jettySize=auto;html=1;" parent="bDSwQKVHY4vqEBovMKtv-29" source="CKIb83CQnGtOCc5Tpajb-11" target="CKIb83CQnGtOCc5Tpajb-15" edge="1">
          <mxGeometry relative="1" as="geometry" />
        </mxCell>
        <mxCell id="CKIb83CQnGtOCc5Tpajb-11" value="Compute (Fargate)&lt;br&gt;e.g. NodeJS" style="sketch=0;points=[[0,0,0],[0.25,0,0],[0.5,0,0],[0.75,0,0],[1,0,0],[0,1,0],[0.25,1,0],[0.5,1,0],[0.75,1,0],[1,1,0],[0,0.25,0],[0,0.5,0],[0,0.75,0],[1,0.25,0],[1,0.5,0],[1,0.75,0]];outlineConnect=0;fontColor=#232F3E;gradientColor=#F78E04;gradientDirection=north;fillColor=#D05C17;strokeColor=#ffffff;dashed=0;verticalLabelPosition=bottom;verticalAlign=top;align=center;html=1;fontSize=12;fontStyle=0;aspect=fixed;shape=mxgraph.aws4.resourceIcon;resIcon=mxgraph.aws4.fargate;" parent="bDSwQKVHY4vqEBovMKtv-29" vertex="1">
          <mxGeometry x="140" y="170" width="78" height="78" as="geometry" />
        </mxCell>
        <mxCell id="CKIb83CQnGtOCc5Tpajb-24" style="edgeStyle=orthogonalEdgeStyle;rounded=0;orthogonalLoop=1;jettySize=auto;html=1;entryX=0;entryY=0.5;entryDx=0;entryDy=0;entryPerimeter=0;" parent="bDSwQKVHY4vqEBovMKtv-29" source="CKIb83CQnGtOCc5Tpajb-15" target="CKIb83CQnGtOCc5Tpajb-11" edge="1">
          <mxGeometry relative="1" as="geometry" />
        </mxCell>
        <mxCell id="CKIb83CQnGtOCc5Tpajb-65" value="Frontend Network (VPC)" style="points=[[0,0],[0.25,0],[0.5,0],[0.75,0],[1,0],[1,0.25],[1,0.5],[1,0.75],[1,1],[0.75,1],[0.5,1],[0.25,1],[0,1],[0,0.75],[0,0.5],[0,0.25]];outlineConnect=0;gradientColor=none;html=1;whiteSpace=wrap;fontSize=12;fontStyle=0;container=0;pointerEvents=0;collapsible=0;recursiveResize=0;shape=mxgraph.aws4.group;grIcon=mxgraph.aws4.group_vpc;strokeColor=#248814;fillColor=none;verticalAlign=top;align=left;spacingLeft=30;fontColor=#AAB7B8;dashed=0;" parent="bDSwQKVHY4vqEBovMKtv-29" vertex="1">
          <mxGeometry width="290" height="290" as="geometry" />
        </mxCell>
        <mxCell id="bDSwQKVHY4vqEBovMKtv-4" value="" style="edgeStyle=orthogonalEdgeStyle;html=1;endArrow=block;elbow=vertical;startArrow=block;startFill=1;endFill=1;strokeColor=#545B64;rounded=0;exitX=0.25;exitY=0;exitDx=0;exitDy=0;exitPerimeter=0;" parent="bDSwQKVHY4vqEBovMKtv-29" source="CKIb83CQnGtOCc5Tpajb-11" target="CKIb83CQnGtOCc5Tpajb-12" edge="1">
          <mxGeometry width="100" relative="1" as="geometry">
            <mxPoint x="510" y="290" as="sourcePoint" />
            <mxPoint x="610" y="290" as="targetPoint" />
          </mxGeometry>
        </mxCell>
        <mxCell id="bDSwQKVHY4vqEBovMKtv-5" value="" style="edgeStyle=orthogonalEdgeStyle;html=1;endArrow=block;elbow=vertical;startArrow=block;startFill=1;endFill=1;strokeColor=#545B64;rounded=0;exitX=0.75;exitY=0;exitDx=0;exitDy=0;exitPerimeter=0;" parent="bDSwQKVHY4vqEBovMKtv-29" source="CKIb83CQnGtOCc5Tpajb-11" target="CKIb83CQnGtOCc5Tpajb-14" edge="1">
          <mxGeometry width="100" relative="1" as="geometry">
            <mxPoint x="200" y="150" as="sourcePoint" />
            <mxPoint x="620" y="300" as="targetPoint" />
          </mxGeometry>
        </mxCell>
        <mxCell id="CKIb83CQnGtOCc5Tpajb-15" value="Load Balancer (ALB)" style="outlineConnect=0;dashed=0;verticalLabelPosition=bottom;verticalAlign=top;align=center;html=1;shape=mxgraph.aws3.application_load_balancer;fillColor=#F58534;gradientColor=none;" parent="bDSwQKVHY4vqEBovMKtv-29" vertex="1">
          <mxGeometry x="30" y="173" width="69" height="72" as="geometry" />
        </mxCell>
        <mxCell id="CKIb83CQnGtOCc5Tpajb-14" value="Cache (Elasticache)&lt;br&gt;Memcache/Redis" style="sketch=0;points=[[0,0,0],[0.25,0,0],[0.5,0,0],[0.75,0,0],[1,0,0],[0,1,0],[0.25,1,0],[0.5,1,0],[0.75,1,0],[1,1,0],[0,0.25,0],[0,0.5,0],[0,0.75,0],[1,0.25,0],[1,0.5,0],[1,0.75,0]];outlineConnect=0;fontColor=#232F3E;gradientColor=#4D72F3;gradientDirection=north;fillColor=#3334B9;strokeColor=#ffffff;dashed=0;verticalLabelPosition=bottom;verticalAlign=top;align=center;html=1;fontSize=12;fontStyle=0;aspect=fixed;shape=mxgraph.aws4.resourceIcon;resIcon=mxgraph.aws4.elasticache;" parent="bDSwQKVHY4vqEBovMKtv-29" vertex="1">
          <mxGeometry x="190" y="21" width="78" height="78" as="geometry" />
        </mxCell>
        <mxCell id="bDSwQKVHY4vqEBovMKtv-31" value="" style="group" parent="1" vertex="1" connectable="0">
          <mxGeometry x="348" y="220" width="240" height="470" as="geometry" />
        </mxCell>
        <mxCell id="CKIb83CQnGtOCc5Tpajb-69" value="Backend Network (VPC)" style="points=[[0,0],[0.25,0],[0.5,0],[0.75,0],[1,0],[1,0.25],[1,0.5],[1,0.75],[1,1],[0.75,1],[0.5,1],[0.25,1],[0,1],[0,0.75],[0,0.5],[0,0.25]];outlineConnect=0;gradientColor=none;html=1;whiteSpace=wrap;fontSize=12;fontStyle=0;container=0;pointerEvents=0;collapsible=0;recursiveResize=0;shape=mxgraph.aws4.group;grIcon=mxgraph.aws4.group_vpc;strokeColor=#248814;fillColor=none;verticalAlign=top;align=left;spacingLeft=30;fontColor=#AAB7B8;dashed=0;" parent="bDSwQKVHY4vqEBovMKtv-31" vertex="1">
          <mxGeometry width="240" height="470" as="geometry" />
        </mxCell>
        <mxCell id="CKIb83CQnGtOCc5Tpajb-37" value="Queue (SQS)" style="sketch=0;points=[[0,0,0],[0.25,0,0],[0.5,0,0],[0.75,0,0],[1,0,0],[0,1,0],[0.25,1,0],[0.5,1,0],[0.75,1,0],[1,1,0],[0,0.25,0],[0,0.5,0],[0,0.75,0],[1,0.25,0],[1,0.5,0],[1,0.75,0]];outlineConnect=0;fontColor=#232F3E;gradientColor=#FF4F8B;gradientDirection=north;fillColor=#BC1356;strokeColor=#ffffff;dashed=0;verticalLabelPosition=bottom;verticalAlign=top;align=center;html=1;fontSize=12;fontStyle=0;aspect=fixed;shape=mxgraph.aws4.resourceIcon;resIcon=mxgraph.aws4.sqs;" parent="bDSwQKVHY4vqEBovMKtv-31" vertex="1">
          <mxGeometry x="30" y="28" width="78" height="78" as="geometry" />
        </mxCell>
        <mxCell id="CKIb83CQnGtOCc5Tpajb-32" value="Compute (Fargate)&lt;br&gt;e.g. Cart&amp;nbsp;" style="sketch=0;points=[[0,0,0],[0.25,0,0],[0.5,0,0],[0.75,0,0],[1,0,0],[0,1,0],[0.25,1,0],[0.5,1,0],[0.75,1,0],[1,1,0],[0,0.25,0],[0,0.5,0],[0,0.75,0],[1,0.25,0],[1,0.5,0],[1,0.75,0]];outlineConnect=0;fontColor=#232F3E;gradientColor=#F78E04;gradientDirection=north;fillColor=#D05C17;strokeColor=#ffffff;dashed=0;verticalLabelPosition=bottom;verticalAlign=top;align=center;html=1;fontSize=12;fontStyle=0;aspect=fixed;shape=mxgraph.aws4.resourceIcon;resIcon=mxgraph.aws4.fargate;" parent="bDSwQKVHY4vqEBovMKtv-31" vertex="1">
          <mxGeometry x="140" y="193" width="78" height="78" as="geometry" />
        </mxCell>
        <mxCell id="bDSwQKVHY4vqEBovMKtv-24" value="" style="edgeStyle=orthogonalEdgeStyle;html=1;endArrow=block;elbow=vertical;startArrow=block;startFill=1;endFill=1;strokeColor=#545B64;rounded=0;entryX=0.25;entryY=0;entryDx=0;entryDy=0;entryPerimeter=0;exitX=0.5;exitY=1;exitDx=0;exitDy=0;exitPerimeter=0;" parent="bDSwQKVHY4vqEBovMKtv-31" source="CKIb83CQnGtOCc5Tpajb-37" target="CKIb83CQnGtOCc5Tpajb-32" edge="1">
          <mxGeometry width="100" relative="1" as="geometry">
            <mxPoint x="248" y="-310" as="sourcePoint" />
            <mxPoint x="489" y="-140" as="targetPoint" />
          </mxGeometry>
        </mxCell>
        <mxCell id="CKIb83CQnGtOCc5Tpajb-33" value="Key Value Store&lt;br&gt;(DynamoDB)&lt;br&gt;Session State" style="sketch=0;points=[[0,0,0],[0.25,0,0],[0.5,0,0],[0.75,0,0],[1,0,0],[0,1,0],[0.25,1,0],[0.5,1,0],[0.75,1,0],[1,1,0],[0,0.25,0],[0,0.5,0],[0,0.75,0],[1,0.25,0],[1,0.5,0],[1,0.75,0]];outlineConnect=0;fontColor=#232F3E;gradientColor=#4D72F3;gradientDirection=north;fillColor=#3334B9;strokeColor=#ffffff;dashed=0;verticalLabelPosition=bottom;verticalAlign=top;align=center;html=1;fontSize=12;fontStyle=0;aspect=fixed;shape=mxgraph.aws4.resourceIcon;resIcon=mxgraph.aws4.dynamodb;" parent="bDSwQKVHY4vqEBovMKtv-31" vertex="1">
          <mxGeometry x="140" y="340" width="78" height="78" as="geometry" />
        </mxCell>
        <mxCell id="CKIb83CQnGtOCc5Tpajb-34" value="Cache (Elasticache)&lt;br&gt;Memcache/Redis" style="sketch=0;points=[[0,0,0],[0.25,0,0],[0.5,0,0],[0.75,0,0],[1,0,0],[0,1,0],[0.25,1,0],[0.5,1,0],[0.75,1,0],[1,1,0],[0,0.25,0],[0,0.5,0],[0,0.75,0],[1,0.25,0],[1,0.5,0],[1,0.75,0]];outlineConnect=0;fontColor=#232F3E;gradientColor=#4D72F3;gradientDirection=north;fillColor=#3334B9;strokeColor=#ffffff;dashed=0;verticalLabelPosition=bottom;verticalAlign=top;align=center;html=1;fontSize=12;fontStyle=0;aspect=fixed;shape=mxgraph.aws4.resourceIcon;resIcon=mxgraph.aws4.elasticache;" parent="bDSwQKVHY4vqEBovMKtv-31" vertex="1">
          <mxGeometry x="30" y="340" width="78" height="78" as="geometry" />
        </mxCell>
        <mxCell id="CKIb83CQnGtOCc5Tpajb-75" style="edgeStyle=orthogonalEdgeStyle;rounded=0;orthogonalLoop=1;jettySize=auto;html=1;exitX=0;exitY=0.5;exitDx=0;exitDy=0;exitPerimeter=0;entryX=1;entryY=0.5;entryDx=0;entryDy=0;entryPerimeter=0;" parent="bDSwQKVHY4vqEBovMKtv-31" source="CKIb83CQnGtOCc5Tpajb-38" target="CKIb83CQnGtOCc5Tpajb-37" edge="1">
          <mxGeometry relative="1" as="geometry" />
        </mxCell>
        <mxCell id="bDSwQKVHY4vqEBovMKtv-40" style="edgeStyle=orthogonalEdgeStyle;rounded=0;orthogonalLoop=1;jettySize=auto;html=1;exitX=0.5;exitY=1;exitDx=0;exitDy=0;exitPerimeter=0;entryX=0.75;entryY=0;entryDx=0;entryDy=0;entryPerimeter=0;" parent="bDSwQKVHY4vqEBovMKtv-31" source="CKIb83CQnGtOCc5Tpajb-38" target="CKIb83CQnGtOCc5Tpajb-32" edge="1">
          <mxGeometry relative="1" as="geometry" />
        </mxCell>
        <mxCell id="CKIb83CQnGtOCc5Tpajb-38" value="Pub/Sub Event Bus&lt;br&gt;(SNS or EventBridge)" style="sketch=0;points=[[0,0,0],[0.25,0,0],[0.5,0,0],[0.75,0,0],[1,0,0],[0,1,0],[0.25,1,0],[0.5,1,0],[0.75,1,0],[1,1,0],[0,0.25,0],[0,0.5,0],[0,0.75,0],[1,0.25,0],[1,0.5,0],[1,0.75,0]];outlineConnect=0;fontColor=#232F3E;gradientColor=#FF4F8B;gradientDirection=north;fillColor=#BC1356;strokeColor=#ffffff;dashed=0;verticalLabelPosition=bottom;verticalAlign=top;align=center;html=1;fontSize=12;fontStyle=0;aspect=fixed;shape=mxgraph.aws4.resourceIcon;resIcon=mxgraph.aws4.sns;" parent="bDSwQKVHY4vqEBovMKtv-31" vertex="1">
          <mxGeometry x="140" y="28" width="78" height="78" as="geometry" />
        </mxCell>
        <mxCell id="bDSwQKVHY4vqEBovMKtv-9" value="" style="edgeStyle=orthogonalEdgeStyle;html=1;endArrow=block;elbow=vertical;startArrow=block;startFill=1;endFill=1;strokeColor=#545B64;rounded=0;exitX=0.5;exitY=0;exitDx=0;exitDy=0;exitPerimeter=0;entryX=0.75;entryY=1;entryDx=0;entryDy=0;entryPerimeter=0;" parent="bDSwQKVHY4vqEBovMKtv-31" source="CKIb83CQnGtOCc5Tpajb-33" target="CKIb83CQnGtOCc5Tpajb-32" edge="1">
          <mxGeometry width="100" relative="1" as="geometry">
            <mxPoint x="570" y="-170" as="sourcePoint" />
            <mxPoint x="670" y="-170" as="targetPoint" />
          </mxGeometry>
        </mxCell>
        <mxCell id="bDSwQKVHY4vqEBovMKtv-8" value="" style="edgeStyle=orthogonalEdgeStyle;html=1;endArrow=block;elbow=vertical;startArrow=block;startFill=1;endFill=1;strokeColor=#545B64;rounded=0;exitX=0.25;exitY=1;exitDx=0;exitDy=0;exitPerimeter=0;" parent="bDSwQKVHY4vqEBovMKtv-31" source="CKIb83CQnGtOCc5Tpajb-32" target="CKIb83CQnGtOCc5Tpajb-34" edge="1">
          <mxGeometry width="100" relative="1" as="geometry">
            <mxPoint x="560" y="-180" as="sourcePoint" />
            <mxPoint x="660" y="-180" as="targetPoint" />
          </mxGeometry>
        </mxCell>
        <mxCell id="bDSwQKVHY4vqEBovMKtv-34" value="Load Balancer (ALB)" style="outlineConnect=0;dashed=0;verticalLabelPosition=bottom;verticalAlign=top;align=center;html=1;shape=mxgraph.aws3.application_load_balancer;fillColor=#F58534;gradientColor=none;" parent="bDSwQKVHY4vqEBovMKtv-31" vertex="1">
          <mxGeometry x="34.5" y="196" width="69" height="72" as="geometry" />
        </mxCell>
        <mxCell id="bDSwQKVHY4vqEBovMKtv-43" value="" style="edgeStyle=orthogonalEdgeStyle;html=1;endArrow=block;elbow=vertical;startArrow=block;startFill=1;endFill=1;strokeColor=#545B64;rounded=0;" parent="1" source="CKIb83CQnGtOCc5Tpajb-32" edge="1">
          <mxGeometry width="100" relative="1" as="geometry">
            <mxPoint x="208" y="450" as="sourcePoint" />
            <mxPoint x="448" y="452" as="targetPoint" />
            <Array as="points" />
          </mxGeometry>
        </mxCell>
      </root>
    </mxGraphModel>
  </diagram>
</mxfile>
